<?xml version="1.0" encoding="UTF-8" standalone="no"?>
<!DOCTYPE svg PUBLIC "-//W3C//DTD SVG 20010904//EN"
              "http://www.w3.org/TR/2001/REC-SVG-20010904/DTD/svg10.dtd">

<svg xmlns="http://www.w3.org/2000/svg"
     width="6.55474in" height="3.20793in"
     viewBox="0 0 472 231">
  <path id="Seleção"
        fill="none" stroke="black" stroke-width="1"
        d="M 166.43,19.00
           C 173.24,27.94 186.41,32.60 197.00,35.12
             219.38,40.43 247.52,40.60 270.00,35.79
             283.15,32.97 301.78,27.32 306.00,13.00
             306.00,13.00 317.00,20.57 317.00,20.57
             332.19,30.28 347.53,37.50 365.00,42.12
             382.65,46.78 414.47,50.10 428.00,60.53
             440.26,69.98 444.78,81.54 448.37,96.00
             453.70,117.45 454.03,140.03 454.00,162.00
             453.97,179.04 444.95,187.08 431.00,195.40
             412.41,206.48 384.30,213.94 363.00,218.20
             337.15,223.37 311.25,226.29 285.00,228.09
             285.00,228.09 275.00,229.00 275.00,229.00
             275.00,229.00 255.00,230.00 255.00,230.00
             255.00,230.00 215.00,230.00 215.00,230.00
             215.00,230.00 195.00,229.00 195.00,229.00
             195.00,229.00 185.00,228.09 185.00,228.09
             154.88,226.03 124.42,222.89 95.00,215.63
             74.95,210.68 52.34,204.49 35.00,193.00
             22.90,184.97 15.18,176.04 15.00,161.00
             15.00,161.00 16.00,142.00 16.00,142.00
             16.02,126.57 18.46,104.71 23.02,90.00
             26.11,80.06 30.85,69.26 39.01,62.47
             53.59,50.35 78.84,48.42 97.00,44.12
             121.86,38.22 142.90,29.05 163.00,13.00
             163.00,13.00 166.43,19.00 166.43,19.00 Z" />
</svg>
