<?xml version="1.0" encoding="UTF-8" standalone="no"?>
<!DOCTYPE svg PUBLIC "-//W3C//DTD SVG 20010904//EN"
              "http://www.w3.org/TR/2001/REC-SVG-20010904/DTD/svg10.dtd">

<svg xmlns="http://www.w3.org/2000/svg"
     width="14.2204in" height="7.11022in"
     viewBox="0 0 1024 512">
  <path id="Seleção"
        fill="none" stroke="black" stroke-width="1"
        d="M 659.00,325.25
           C 635.12,313.28 609.21,295.42 589.00,278.00
             589.00,278.00 568.00,259.00 568.00,259.00
             566.20,257.19 562.20,253.68 562.20,251.00
             562.20,248.31 566.20,244.82 568.00,243.00
             568.00,243.00 587.00,225.58 587.00,225.58
             608.89,206.86 636.20,188.15 662.00,175.25
             662.00,175.25 681.00,167.00 681.00,167.00
             684.50,165.61 687.22,163.98 691.00,165.00
             684.76,169.72 680.88,174.04 675.92,180.00
             649.98,211.20 642.63,255.43 658.42,293.00
             663.10,304.11 669.36,314.89 677.29,324.00
             677.29,324.00 692.00,339.00 692.00,339.00
             683.74,337.06 666.98,329.25 659.00,325.25 Z
           M 873.00,180.14
           C 895.55,192.72 917.38,207.01 937.00,223.87
             937.00,223.87 958.00,243.00 958.00,243.00
             959.80,244.82 963.80,248.31 963.80,251.00
             963.80,253.68 959.80,257.19 958.00,259.00
             958.00,259.00 937.00,278.00 937.00,278.00
             917.41,294.88 890.16,313.67 867.00,325.25
             859.36,329.07 842.98,336.75 835.00,338.00
             835.00,338.00 843.96,329.00 843.96,329.00
             849.93,322.82 858.18,311.61 862.46,304.00
             879.62,271.23 880.49,231.85 862.46,199.00
             858.00,190.35 850.78,180.05 843.96,173.00
             843.96,173.00 835.00,164.00 835.00,164.00
             844.86,165.55 863.96,175.10 873.00,180.14 Z
           M 152.00,326.25
           C 128.12,314.28 102.21,296.42 82.00,279.00
             82.00,279.00 61.00,260.00 61.00,260.00
             59.20,258.19 55.20,254.68 55.20,252.00
             55.20,249.31 59.20,245.82 61.00,244.00
             61.00,244.00 80.00,226.58 80.00,226.58
             101.89,207.86 129.20,189.15 155.00,176.25
             155.00,176.25 174.00,168.00 174.00,168.00
             177.50,166.61 180.22,164.98 184.00,166.00
             177.76,170.72 173.88,175.04 168.92,181.00
             142.98,212.20 135.63,256.43 151.42,294.00
             156.10,305.11 162.36,315.89 170.29,325.00
             170.29,325.00 185.00,340.00 185.00,340.00
             176.74,338.06 159.98,330.25 152.00,326.25 Z
           M 366.00,181.14
           C 388.55,193.72 410.38,208.01 430.00,224.87
             430.00,224.87 451.00,244.00 451.00,244.00
             452.80,245.82 456.80,249.31 456.80,252.00
             456.80,254.68 452.80,258.19 451.00,260.00
             451.00,260.00 430.00,279.00 430.00,279.00
             410.41,295.88 383.16,314.67 360.00,326.25
             352.36,330.07 335.98,337.75 328.00,339.00
             328.00,339.00 336.96,330.00 336.96,330.00
             342.93,323.82 351.18,312.61 355.46,305.00
             372.62,272.23 373.49,232.85 355.46,200.00
             351.00,191.35 343.78,181.05 336.96,174.00
             336.96,174.00 328.00,165.00 328.00,165.00
             337.86,166.55 356.96,176.10 366.00,181.14 Z" />
</svg>
