<?xml version="1.0" encoding="UTF-8" standalone="no"?>
<!DOCTYPE svg PUBLIC "-//W3C//DTD SVG 20010904//EN"
              "http://www.w3.org/TR/2001/REC-SVG-20010904/DTD/svg10.dtd">

<svg xmlns="http://www.w3.org/2000/svg"
     width="14.2204in" height="7.11022in"
     viewBox="0 0 1024 512">
  <path id="Seleção #1"
        fill="none" stroke="black" stroke-width="1"
        d="M 828.00,126.60
           C 880.02,137.00 920.44,160.33 962.00,192.50
             962.00,192.50 996.09,222.58 996.09,222.58
             1002.33,228.39 1010.10,234.62 1009.87,244.00
             1009.65,253.07 1004.12,258.10 998.00,263.96
             998.00,263.96 965.00,292.92 965.00,292.92
             911.90,337.00 849.02,366.82 779.00,366.00
             779.00,366.00 769.00,365.09 769.00,365.09
             705.82,360.75 649.10,331.59 601.00,291.41
             601.00,291.41 582.00,274.91 582.00,274.91
             582.00,274.91 571.00,264.28 571.00,264.28
             564.44,258.49 556.93,251.75 558.34,242.00
             559.66,232.81 565.90,228.80 572.00,222.96
             572.00,222.96 603.00,194.80 603.00,194.80
             635.48,168.49 677.50,143.03 718.00,131.74
             732.11,127.81 746.46,125.03 761.00,123.28
             761.00,123.28 775.00,122.42 775.00,122.42
             787.96,120.85 814.82,123.96 828.00,126.60 Z
           M 294.00,128.60
           C 346.02,139.00 386.44,162.33 428.00,194.50
             428.00,194.50 462.09,224.58 462.09,224.58
             468.33,230.39 476.10,236.62 475.87,246.00
             475.65,255.07 470.12,260.10 464.00,265.96
             464.00,265.96 431.00,294.92 431.00,294.92
             377.90,339.00 315.02,368.82 245.00,368.00
             245.00,368.00 235.00,367.09 235.00,367.09
             171.82,362.75 115.10,333.59 67.00,293.41
             67.00,293.41 48.00,276.91 48.00,276.91
             48.00,276.91 37.00,266.28 37.00,266.28
             30.44,260.49 22.93,253.75 24.34,244.00
             25.66,234.81 31.90,230.80 38.00,224.96
             38.00,224.96 69.00,196.80 69.00,196.80
             101.48,170.49 143.50,145.03 184.00,133.74
             198.11,129.81 212.46,127.03 227.00,125.28
             227.00,125.28 241.00,124.42 241.00,124.42
             253.96,122.85 280.82,125.96 294.00,128.60 Z
           M 743.00,162.27
           C 714.38,176.58 693.05,207.58 693.00,240.00
             692.98,255.45 693.50,264.30 699.45,279.00
             711.75,309.36 744.61,334.61 778.00,335.00
             796.24,335.21 808.26,333.98 825.00,325.63
             836.26,320.01 844.52,313.29 852.95,303.99
             859.85,296.36 864.80,287.50 868.60,278.00
             883.79,240.03 872.21,197.04 840.00,171.67
             820.75,156.50 797.12,151.03 773.00,153.29
             762.23,154.93 752.81,157.36 743.00,162.27 Z
           M 209.00,164.27
           C 180.38,178.58 159.05,209.58 159.00,242.00
             158.98,257.45 159.50,266.30 165.45,281.00
             177.75,311.36 210.61,336.61 244.00,337.00
             262.24,337.21 274.26,335.98 291.00,327.63
             302.26,322.01 310.52,315.29 318.95,305.99
             325.85,298.36 330.80,289.50 334.60,280.00
             349.79,242.03 338.21,199.04 306.00,173.67
             286.75,158.50 263.12,153.03 239.00,155.29
             228.23,156.93 218.81,159.36 209.00,164.27 Z
           M 712.00,156.00
           C 712.00,156.00 713.00,157.00 713.00,157.00
             713.00,157.00 713.00,156.00 713.00,156.00
             713.00,156.00 712.00,156.00 712.00,156.00 Z
           M 855.00,156.00
           C 855.00,156.00 856.00,157.00 856.00,157.00
             856.00,157.00 856.00,156.00 856.00,156.00
             856.00,156.00 855.00,156.00 855.00,156.00 Z
           M 677.00,171.74
           C 652.98,184.09 630.74,199.83 610.00,217.08
             610.00,217.08 589.00,236.00 589.00,236.00
             587.20,237.81 583.20,241.32 583.20,244.00
             583.20,246.87 587.98,250.98 590.00,252.83
             590.00,252.83 610.04,270.81 610.04,270.81
             632.33,289.46 659.40,309.01 686.00,320.86
             694.19,324.51 702.20,328.94 711.00,331.00
             702.97,319.79 694.38,316.69 683.26,295.00
             665.34,260.05 667.48,219.56 687.45,186.00
             697.43,169.23 704.25,166.43 711.00,157.00
             699.64,160.07 687.44,166.38 677.00,171.74 Z
           M 887.00,318.25
           C 913.04,305.23 935.84,289.62 958.00,270.73
             958.00,270.73 978.00,252.72 978.00,252.72
             980.07,250.89 984.80,246.93 984.80,244.00
             984.80,241.32 980.80,237.81 979.00,236.00
             979.00,236.00 960.00,218.75 960.00,218.75
             939.08,201.26 907.76,178.78 883.00,167.59
             883.00,167.59 865.00,159.80 865.00,159.80
             861.69,158.50 859.57,157.10 856.00,158.00
             881.48,177.29 897.75,214.17 896.99,246.00
             896.66,259.60 892.91,275.52 887.57,288.00
             878.50,309.23 871.18,314.95 856.00,331.00
             865.56,329.27 878.21,322.64 887.00,318.25 Z
           M 178.00,158.00
           C 178.00,158.00 179.00,159.00 179.00,159.00
             179.00,159.00 179.00,158.00 179.00,158.00
             179.00,158.00 178.00,158.00 178.00,158.00 Z
           M 321.00,158.00
           C 321.00,158.00 322.00,159.00 322.00,159.00
             322.00,159.00 322.00,158.00 322.00,158.00
             322.00,158.00 321.00,158.00 321.00,158.00 Z
           M 143.00,173.74
           C 118.98,186.09 96.74,201.83 76.00,219.08
             76.00,219.08 55.00,238.00 55.00,238.00
             53.20,239.81 49.20,243.32 49.20,246.00
             49.20,248.87 53.98,252.98 56.00,254.83
             56.00,254.83 76.04,272.81 76.04,272.81
             98.33,291.46 125.40,311.01 152.00,322.86
             160.19,326.51 168.20,330.94 177.00,333.00
             168.97,321.79 160.38,318.69 149.26,297.00
             131.34,262.05 133.48,221.56 153.45,188.00
             163.43,171.23 170.25,168.43 177.00,159.00
             165.64,162.07 153.44,168.38 143.00,173.74 Z
           M 353.00,320.25
           C 379.04,307.23 401.84,291.62 424.00,272.73
             424.00,272.73 444.00,254.72 444.00,254.72
             446.07,252.89 450.80,248.93 450.80,246.00
             450.80,243.32 446.80,239.81 445.00,238.00
             445.00,238.00 426.00,220.75 426.00,220.75
             405.08,203.26 373.76,180.78 349.00,169.59
             349.00,169.59 331.00,161.80 331.00,161.80
             327.69,160.50 325.57,159.10 322.00,160.00
             347.48,179.29 363.75,216.17 362.99,248.00
             362.66,261.60 358.91,277.52 353.57,290.00
             344.50,311.23 337.18,316.95 322.00,333.00
             331.56,331.27 344.21,324.64 353.00,320.25 Z
           M 797.00,210.91
           C 814.19,220.17 817.66,246.15 803.91,259.91
             796.39,267.42 790.00,268.11 780.00,268.00
             745.52,267.59 741.31,216.26 774.00,208.47
             781.14,207.47 790.53,207.43 797.00,210.91 Z
           M 263.00,212.91
           C 280.19,222.17 283.66,248.15 269.91,261.91
             262.39,269.42 256.00,270.11 246.00,270.00
             211.52,269.59 207.31,218.26 240.00,210.47
             247.14,209.47 256.53,209.43 263.00,212.91 Z
           M 855.00,331.00
           C 855.00,331.00 856.00,332.00 856.00,332.00
             856.00,332.00 856.00,331.00 856.00,331.00
             856.00,331.00 855.00,331.00 855.00,331.00 Z
           M 321.00,333.00
           C 321.00,333.00 322.00,334.00 322.00,334.00
             322.00,334.00 322.00,333.00 322.00,333.00
             322.00,333.00 321.00,333.00 321.00,333.00 Z" />
</svg>
