<?xml version="1.0" encoding="UTF-8" standalone="no"?>
<!DOCTYPE svg PUBLIC "-//W3C//DTD SVG 20010904//EN"
              "http://www.w3.org/TR/2001/REC-SVG-20010904/DTD/svg10.dtd">

<svg xmlns="http://www.w3.org/2000/svg"
     width="14.2204in" height="7.11022in"
     viewBox="0 0 1024 512">
  <path id="Seleção #2"
        fill="none" stroke="black" stroke-width="1"
        d="M 848.83,179.17
           C 881.27,211.61 884.61,266.73 854.71,302.00
             846.32,311.88 837.46,319.18 826.00,325.22
             808.90,334.22 795.75,335.22 777.00,335.00
             769.26,334.91 762.28,333.09 755.00,330.67
             729.63,322.21 709.54,303.90 699.45,279.00
             692.98,263.01 692.97,255.65 693.00,239.00
             693.02,229.32 694.61,223.09 697.67,214.00
             708.88,180.68 736.76,159.05 771.00,153.43
             799.34,149.93 828.47,158.81 848.83,179.17 Z
           M 314.83,181.17
           C 347.27,213.61 350.61,268.73 320.71,304.00
             312.32,313.88 303.46,321.18 292.00,327.22
             274.90,336.22 261.75,337.22 243.00,337.00
             235.26,336.91 228.28,335.09 221.00,332.67
             195.63,324.21 175.54,305.90 165.45,281.00
             158.98,265.01 158.97,257.65 159.00,241.00
             159.02,231.32 160.61,225.09 163.67,216.00
             174.88,182.68 202.76,161.05 237.00,155.43
             265.34,151.93 294.47,160.81 314.83,181.17 Z
           M 752.79,229.00
           C 747.59,247.28 760.39,267.76 780.00,268.00
             787.15,268.08 791.70,268.09 798.00,264.03
             818.32,250.95 816.62,221.19 795.00,210.38
             789.09,207.42 781.46,207.61 775.00,208.33
             764.85,210.76 755.69,218.78 752.79,229.00 Z
           M 218.79,231.00
           C 213.59,249.28 226.39,269.76 246.00,270.00
             253.15,270.08 257.70,270.09 264.00,266.03
             284.32,252.95 282.62,223.19 261.00,212.38
             255.09,209.42 247.46,209.61 241.00,210.33
             230.85,212.76 221.69,220.78 218.79,231.00 Z" />
</svg>
