<?xml version="1.0" encoding="UTF-8" standalone="no"?>
<!DOCTYPE svg PUBLIC "-//W3C//DTD SVG 20010904//EN"
              "http://www.w3.org/TR/2001/REC-SVG-20010904/DTD/svg10.dtd">

<svg xmlns="http://www.w3.org/2000/svg"
     width="4.23032in" height="4.23032in"
     viewBox="0 0 512 512">
  <path id="Seleção"
        fill="none" stroke="black" stroke-width="1"
        d="M 214.09,498.00
           C 214.09,498.00 215.00,487.00 215.00,487.00
             215.00,487.00 213.15,457.00 213.15,457.00
             212.07,447.92 209.74,435.10 203.67,428.04
             203.67,428.04 180.00,408.60 180.00,408.60
             167.36,398.49 155.49,387.59 145.26,375.00
             138.22,366.33 130.29,353.73 131.33,342.00
             132.22,331.84 139.17,323.94 146.00,317.00
             149.96,312.98 156.35,307.27 155.52,301.00
             154.32,291.96 137.63,280.57 131.32,273.00
             119.92,259.31 117.68,246.03 116.74,229.00
             116.74,229.00 116.74,221.00 116.74,221.00
             118.00,197.63 124.53,178.51 133.20,157.00
             133.20,157.00 145.25,128.00 145.25,128.00
             145.25,128.00 150.42,99.00 150.42,99.00
             150.42,99.00 154.35,79.00 154.35,79.00
             161.70,46.51 177.83,0.47 218.00,0.00
             218.00,0.00 227.00,0.00 227.00,0.00
             235.15,0.10 246.49,3.11 254.00,6.28
             257.01,7.56 266.49,12.27 269.00,12.20
             269.00,12.20 287.00,4.69 287.00,4.69
             304.16,-1.53 323.43,-2.88 337.99,10.18
             347.73,18.93 352.74,30.98 357.05,43.00
             364.49,63.77 366.85,87.19 369.72,109.00
             369.72,109.00 372.89,133.00 372.89,133.00
             375.62,145.00 381.14,150.28 386.22,161.00
             393.55,176.48 396.55,188.85 394.83,206.00
             393.58,218.43 386.10,230.47 379.80,241.00
             375.88,247.55 370.52,256.10 371.19,264.00
             371.74,270.55 375.78,276.03 378.20,282.00
             383.10,294.10 387.84,306.77 388.00,320.00
             388.23,339.65 384.16,352.07 370.83,367.00
             370.83,367.00 344.39,393.00 344.39,393.00
             335.81,403.94 341.48,409.50 332.30,424.00
             321.03,441.83 304.90,455.72 289.00,469.27
             281.21,475.91 265.72,488.52 257.00,493.00
             259.33,487.53 263.46,483.05 266.57,478.00
             270.92,470.94 276.52,458.19 277.70,450.00
             279.09,440.35 276.43,433.21 275.29,424.00
             273.58,410.33 273.29,396.40 277.01,383.00
             279.82,372.87 283.96,364.86 291.43,357.29
             298.26,350.35 303.98,349.81 304.36,344.96
             304.62,341.68 297.10,326.73 295.25,323.00
             288.81,310.04 282.79,293.46 287.60,279.00
             291.04,268.63 301.38,262.42 310.00,256.67
             322.04,248.62 342.60,232.86 351.54,222.00
             357.12,215.21 361.77,208.15 361.66,199.00
             361.54,188.90 352.69,180.89 345.00,175.67
             341.06,172.99 335.79,170.28 333.57,165.96
             331.72,162.37 329.71,149.63 328.92,145.00
             326.75,132.23 324.11,116.72 318.69,105.00
             314.90,96.79 308.07,87.20 298.00,87.18
             292.05,87.18 283.80,91.71 279.00,95.04
             276.49,96.78 271.96,100.97 269.00,100.98
             265.31,100.99 261.57,96.03 255.00,93.99
             242.73,90.17 231.89,101.87 225.75,111.00
             216.74,124.40 216.40,133.10 212.63,148.00
             209.37,160.87 203.25,179.07 195.91,190.00
             194.27,192.45 191.91,195.52 189.71,197.47
             185.43,201.27 173.25,205.33 176.79,218.00
             181.08,233.37 202.27,249.39 215.00,258.28
             215.00,258.28 227.67,266.78 227.67,266.78
             230.83,270.02 228.07,272.83 226.33,276.00
             224.03,280.19 221.43,286.12 222.41,291.00
             223.63,297.12 228.60,300.61 232.39,305.04
             239.07,312.85 248.73,326.17 247.81,337.00
             246.55,351.94 228.51,358.28 227.10,374.00
             226.49,380.85 230.17,390.19 231.99,397.00
             233.79,403.75 234.44,412.00 234.91,419.00
             235.26,424.17 234.63,426.20 233.94,431.00
             233.94,431.00 233.94,439.00 233.94,439.00
             232.04,452.95 228.90,466.44 225.37,480.00
             225.37,480.00 218.33,502.00 218.33,502.00
             217.04,505.85 216.33,509.51 213.00,512.00
             214.42,504.06 213.62,504.79 214.09,498.00 Z" />
</svg>
