<?xml version="1.0" encoding="UTF-8" standalone="no"?>
<!DOCTYPE svg PUBLIC "-//W3C//DTD SVG 20010904//EN"
              "http://www.w3.org/TR/2001/REC-SVG-20010904/DTD/svg10.dtd">

<svg xmlns="http://www.w3.org/2000/svg"
     width="3.56944in" height="3.94444in"
     viewBox="0 0 257 284">
  <path id="Seleção"
        fill="none" stroke="black" stroke-width="1"
        d="M 143.00,1.21
           C 156.86,1.07 174.81,5.74 187.00,12.31
             187.00,12.31 199.00,19.91 199.00,19.91
             215.71,30.61 221.05,32.82 229.69,52.00
             236.64,67.43 238.17,84.39 239.83,101.00
             239.83,101.00 241.14,115.00 241.14,115.00
             241.91,119.69 244.52,120.98 246.43,125.00
             248.26,128.85 248.95,134.75 249.00,139.00
             249.14,150.90 247.11,163.30 241.63,174.00
             237.91,181.25 234.20,182.80 231.70,186.17
             231.70,186.17 224.25,202.00 224.25,202.00
             209.62,231.32 186.34,263.95 153.00,273.08
             144.74,275.34 139.39,275.09 131.00,275.00
             117.25,274.84 104.07,268.74 93.00,260.96
             70.15,244.90 53.68,219.30 42.72,194.00
             36.96,180.70 34.82,185.18 29.35,176.00
             22.28,164.12 20.85,150.49 21.00,137.00
             21.06,131.98 21.74,127.48 24.36,123.09
             25.87,120.55 28.04,118.76 29.11,115.96
             30.39,112.65 29.96,105.78 30.00,102.00
             30.23,82.75 35.84,54.65 47.29,39.00
             55.33,28.01 59.10,27.04 70.00,20.55
             92.33,7.24 94.81,5.22 121.00,1.21
             121.00,1.21 143.00,1.21 143.00,1.21 Z" />
</svg>
