<?xml version="1.0" encoding="UTF-8" standalone="no"?>
<!DOCTYPE svg PUBLIC "-//W3C//DTD SVG 20010904//EN"
              "http://www.w3.org/TR/2001/REC-SVG-20010904/DTD/svg10.dtd">

<svg xmlns="http://www.w3.org/2000/svg"
     width="2.36111in" height="2.36111in"
     viewBox="0 0 170 170">
  <path id="Seleção"
        fill="none" stroke="black" stroke-width="1"
        d="M 107.00,7.00
           C 110.64,4.57 112.48,2.40 117.00,4.00
             117.00,4.00 113.00,10.00 113.00,10.00
             124.98,12.37 122.22,6.08 129.00,10.00
             129.00,10.00 125.00,12.00 125.00,12.00
             132.35,21.43 143.58,25.91 144.00,45.00
             144.00,45.00 141.00,44.00 141.00,44.00
             141.00,44.00 136.85,84.00 136.85,84.00
             136.24,89.03 136.39,96.12 131.00,98.00
             131.16,90.48 133.89,76.39 132.66,70.00
             130.80,60.32 124.09,61.89 124.00,49.00
             123.98,45.48 124.15,42.48 123.32,39.00
             122.81,36.89 122.08,34.90 120.86,33.09
             111.47,19.20 96.10,32.12 86.00,31.87
             77.85,31.67 66.19,24.83 57.00,30.09
             45.30,36.77 48.31,48.39 46.57,55.00
             45.25,60.05 40.39,63.40 37.23,71.00
             34.56,78.57 36.36,88.13 37.23,96.00
             31.21,91.18 30.46,83.16 29.98,76.00
             29.98,76.00 29.00,65.00 29.00,65.00
             28.94,59.21 29.99,44.61 31.00,39.00
             31.00,39.00 26.00,43.00 26.00,43.00
             27.32,37.23 29.01,33.22 31.78,28.00
             42.18,8.44 60.63,3.97 81.00,4.00
             88.23,4.01 93.00,5.08 100.00,6.00
             100.00,6.00 97.00,0.00 97.00,0.00
             102.57,0.64 104.53,1.90 107.00,7.00 Z
           M 57.60,121.00
           C 59.36,123.21 62.63,127.75 65.09,128.89
             69.05,130.72 79.35,126.31 86.00,126.04
             93.54,125.74 97.28,127.84 104.00,130.72
             106.88,131.95 110.80,134.19 113.79,132.30
             116.16,130.80 118.49,125.58 119.74,123.00
             124.23,113.74 124.37,106.34 133.00,100.00
             131.60,117.22 127.06,134.93 115.13,147.91
             110.77,152.65 106.40,157.41 100.00,159.00
             100.00,159.00 101.00,154.00 101.00,154.00
             98.56,157.33 92.49,168.41 88.91,169.26
             84.79,170.23 82.01,164.70 79.96,162.05
             76.47,157.54 74.86,157.92 71.04,154.66
             71.04,154.66 61.00,144.00 61.00,144.00
             61.00,144.00 61.00,147.00 61.00,147.00
             56.23,143.42 47.91,133.47 45.53,128.00
             45.53,128.00 42.12,116.00 42.12,116.00
             39.05,108.62 35.77,105.47 35.00,97.00
             43.60,99.53 51.93,113.91 57.60,121.00 Z" />
</svg>
