<?xml version="1.0" encoding="UTF-8" standalone="no"?>
<!DOCTYPE svg PUBLIC "-//W3C//DTD SVG 20010904//EN"
              "http://www.w3.org/TR/2001/REC-SVG-20010904/DTD/svg10.dtd">

<svg xmlns="http://www.w3.org/2000/svg"
     width="3.125in" height="3.125in"
     viewBox="0 0 225 225">
  <path id="Seleção"
        fill="none" stroke="black" stroke-width="1"
        d="M 123.00,115.00
           C 123.00,115.00 108.00,115.00 108.00,115.00
             108.00,115.00 91.00,114.00 91.00,114.00
             75.39,113.98 58.93,115.85 47.17,127.29
             37.91,136.30 34.09,149.82 31.13,162.00
             29.34,169.35 27.09,184.57 26.89,192.00
             26.89,192.00 26.89,212.98 26.89,212.98
             26.23,215.96 24.42,218.26 21.09,217.63
             16.99,216.85 16.29,211.36 15.60,208.00
             15.60,208.00 9.59,176.00 9.59,176.00
             5.23,150.06 1.58,124.23 0.09,98.00
             0.09,98.00 1.46,81.00 1.46,81.00
             3.43,70.07 11.28,54.87 17.90,46.00
             36.24,21.40 66.32,7.05 97.00,7.00
             97.00,7.00 115.00,7.00 115.00,7.00
             127.35,7.15 145.14,11.46 156.00,17.31
             163.85,21.54 170.94,26.95 176.48,34.00
             176.48,34.00 184.63,46.42 184.63,46.42
             186.46,48.09 194.97,50.22 198.00,51.45
             206.21,54.78 212.46,59.31 217.07,67.00
             222.33,75.76 223.98,89.88 224.00,100.00
             224.00,100.00 224.92,113.00 224.92,113.00
             224.92,113.00 224.04,121.00 224.04,121.00
             224.04,121.00 224.04,132.00 224.04,132.00
             224.04,132.00 223.09,142.00 223.09,142.00
             221.51,165.04 218.11,174.28 207.75,195.00
             205.61,199.28 199.14,212.94 196.39,215.69
             195.18,216.90 193.83,217.73 192.04,217.54
             187.47,217.05 188.01,211.30 188.00,208.00
             188.00,208.00 188.00,183.00 188.00,183.00
             188.00,183.00 189.00,168.00 189.00,168.00
             189.00,168.00 189.00,157.00 189.00,157.00
             188.90,149.00 186.05,135.23 182.68,128.00
             182.68,128.00 177.46,118.00 177.46,118.00
             175.28,112.82 173.12,104.57 172.00,99.00
             156.65,108.40 141.37,114.97 123.00,115.00 Z" />
</svg>
